# xmcd
#
# Track frame offsets: 
#        150
#        19596
#        34874
#        53846
#        71303
#        83079
#        101008
#        123448
#        140203
#        159368
#        174538
#        203636
#        213963
#        230020
#        250314
#
# Disc length: 3578 seconds
#
# Revision: 0
# Processed by: cddbd v1.5.2PL0 Copyright (c) Steve Scherf et al.
# Submitted via: ExactAudioCopy v1.0b3
#
DISCID=cb0df80f
DTITLE=Eric Bibb - Blues People
DYEAR=2014
DGENRE=Blues
TTITLE0=Silver Spoon
TTITLE1=Driftin' Door to Door
TTITLE2=God's Mojo
TTITLE3=Turner Station
TTITLE4=Pink Dream Cadillac
TTITLE5=Chocolate Man
TTITLE6=Rosewood
TTITLE7=I Heard the Angels Singin'
TTITLE8=Dream Catchers
TTITLE9=Chain Reaction
TTITLE10=Needed Time
TTITLE11=Out Walkin'
TTITLE12=Remember the Ones
TTITLE13=Home
TTITLE14=Where Do We Go
EXTD=
EXTT0=
EXTT1=
EXTT2=
EXTT3=
EXTT4=
EXTT5=
EXTT6=
EXTT7=
EXTT8=
EXTT9=
EXTT10=
EXTT11=
EXTT12=
EXTT13=
EXTT14=
PLAYORDER=
